<svg width="51" height="41" viewBox="0 0 51 41" fill="none" xmlns="http://www.w3.org/2000/svg">
<path d="M0.19125 40.76L0.19125 27.08C0.19125 22.04 1.11125 17.44 2.95125 13.28C4.79125 9.11999 7.91125 4.79999 12.3112 0.31999L20.4712 6.67999C17.3512 9.79999 15.1112 12.72 13.7512 15.44C12.3912 18.08 11.7112 21 11.7112 24.2L7.03125 18.92H22.3912V40.76H0.19125ZM28.6312 40.76V27.08C28.6312 22.04 29.5512 17.44 31.3912 13.28C33.2312 9.11999 36.3512 4.79999 40.7512 0.31999L48.9112 6.67999C45.7912 9.79999 43.5512 12.72 42.1912 15.44C40.8312 18.08 40.1512 21 40.1512 24.2L35.4712 18.92H50.8312V40.76H28.6312Z" fill="black" fill-opacity="0.3"/>
</svg>
