<svg width="51" height="41" viewBox="0 0 51 41" fill="none" xmlns="http://www.w3.org/2000/svg">
<path d="M50.8088 0.24001L50.8088 13.92C50.8088 18.96 49.8888 23.56 48.0488 27.72C46.2088 31.88 43.0888 36.2 38.6888 40.68L30.5288 34.32C33.6488 31.2 35.8888 28.28 37.2488 25.56C38.6088 22.92 39.2888 20 39.2888 16.8L43.9688 22.08L28.6088 22.08L28.6088 0.24001L50.8088 0.24001ZM22.3688 0.24001L22.3688 13.92C22.3688 18.96 21.4488 23.56 19.6088 27.72C17.7688 31.88 14.6488 36.2 10.2488 40.68L2.08875 34.32C5.20875 31.2 7.44875 28.28 8.80875 25.56C10.1688 22.92 10.8488 20 10.8488 16.8L15.5288 22.08L0.168753 22.08L0.168753 0.24001L22.3688 0.24001Z" fill="black" fill-opacity="0.3"/>
</svg>
